<svg version="1.1" viewBox="0.0 0.0 100.0 100.0" fill="none" stroke="none" stroke-linecap="square" stroke-miterlimit="10" xmlns:xlink="http://www.w3.org/1999/xlink" xmlns="http://www.w3.org/2000/svg"><clipPath id="p.0"><path d="m0 0l100.0 0l0 100.0l-100.0 0l0 -100.0z" clip-rule="nonzero"/></clipPath><g clip-path="url(#p.0)"><path fill="#000000" fill-opacity="0.0" d="m0 0l100.0 0l0 100.0l-100.0 0z" fill-rule="evenodd"/><path fill="#000000" d="m0 50.013123l0 0c0 -27.614237 22.385763 -50.0 50.0 -50.0l0 0c13.260826 0 25.978523 5.267842 35.35534 14.644661c9.376816 9.376819 14.644661 22.094517 14.644661 35.35534l0 0c0 27.614235 -22.385765 50.0 -50.0 50.0l0 0c-27.614237 0 -50.0 -22.385765 -50.0 -50.0z" fill-rule="evenodd"/><path stroke="#000000" stroke-width="1.0" stroke-linejoin="round" stroke-linecap="butt" d="m0 50.013123l0 0c0 -27.614237 22.385763 -50.0 50.0 -50.0l0 0c13.260826 0 25.978523 5.267842 35.35534 14.644661c9.376816 9.376819 14.644661 22.094517 14.644661 35.35534l0 0c0 27.614235 -22.385765 50.0 -50.0 50.0l0 0c-27.614237 0 -50.0 -22.385765 -50.0 -50.0z" fill-rule="evenodd"/><path fill="#00b0f0" d="m40.860233 64.68224c-4.3109016 -2.216938 -9.235674 -3.4653282 -14.289755 -3.3720436c-5.861717 0.08886719 -10.015724 3.0388145 -15.831337 0.16884613c-6.184794 -3.1010246 -8.621804 -10.39603 -5.4740133 -16.331535c3.2262383 -5.953224 10.805009 -8.303459 16.98986 -5.1935463c5.737108 2.8789139 5.907881 8.121307 9.263372 12.763985c2.8755188 3.8785324 6.6279488 6.899578 10.985012 8.952133c4.2370987 2.230236 8.986511 3.429779 13.966679 3.354271c5.797146 0 10.431126 -2.9633102 16.168293 -0.07997894c6.1709747 3.02993 8.607979 10.3248825 5.46019 16.264854c-3.2308807 5.948807 -10.805008 8.299042 -16.897537 5.2512817c-5.9079323 -2.923294 -5.8617706 -7.894722 -9.124939 -12.479607c-2.9032173 -4.0295563 -6.761791 -7.183899 -11.215824 -9.29866l0 0z" fill-rule="evenodd"/><path fill="#ffffff" d="m66.90122 36.173244c6.8771667 0 12.489662 -5.326845 12.489662 -11.946516c0 -6.619671 -5.6124954 -12.022027 -12.489662 -12.022027c-6.8771706 0 -12.494312 5.402356 -12.494312 12.022027c0.0046424866 6.619671 5.6171417 11.946516 12.494312 11.946516l0 0z" fill-rule="evenodd"/><path fill="#ffffff" d="m40.994133 41.508976c3.6370506 0 6.558731 -2.8300095 6.558731 -6.3486557c0 -3.5186462 -2.9262695 -6.424217 -6.558731 -6.424217c-3.6370544 0 -6.6417694 2.905571 -6.6417694 6.424217c0.0046424866 3.5186462 3.0093613 6.3486557 6.6417694 6.3486557l0 0z" fill-rule="evenodd"/></g></svg>