<svg version="1.1" viewBox="0.0 0.0 747.7900262467192 145.86089238845145" fill="none" stroke="none" stroke-linecap="square" stroke-miterlimit="10" xmlns:xlink="http://www.w3.org/1999/xlink" xmlns="http://www.w3.org/2000/svg"><clipPath id="p.0"><path d="m0 0l747.79004 0l0 145.86089l-747.79004 0l0 -145.86089z" clip-rule="nonzero"/></clipPath><g clip-path="url(#p.0)"><path fill="#000000" fill-opacity="0.0" d="m0 0l747.79004 0l0 145.86089l-747.79004 0z" fill-rule="evenodd"/><path fill="#00b0f0" d="m68.52536 101.05407c-7.990551 -4.269081 -17.11895 -6.673065 -26.487034 -6.4934387c-10.865091 0.17113495 -18.564829 5.851761 -29.344461 0.32514954c-11.463937 -5.97155 -15.981102 -20.019318 -10.146457 -31.449135c5.980053 -11.46394 20.02782 -15.989712 31.491863 -10.001053c10.634121 5.5438347 10.950657 15.638954 17.170288 24.579216c5.329975 7.4687653 12.285355 13.286301 20.36147 17.238846c7.853752 4.294693 16.657112 6.6046143 25.888191 6.4592133c10.745407 0 19.3348 -5.706352 29.969025 -0.15402222c11.438316 5.834648 15.9554825 19.882309 10.120842 31.320732c-5.9886627 11.455444 -20.027824 15.981216 -31.320732 10.112244c-10.95076 -5.629303 -10.865196 -15.202629 -16.913704 -24.031609c-5.3813095 -7.7595825 -12.53344 -13.833809 -20.789291 -17.906143l0 0z" fill-rule="evenodd"/><path fill="#ffffff" d="m116.794106 46.155178c12.747292 0 23.150444 -10.257744 23.150444 -23.00504c0 -12.747297 -10.403152 -23.150446 -23.150444 -23.150446c-12.747299 0 -23.159058 10.40315 -23.159058 23.150446c0.008605957 12.747295 10.411758 23.00504 23.159058 23.00504l0 0z" fill-rule="evenodd"/><path fill="#ffffff" d="m68.77355 56.430027c6.741516 0 12.157059 -5.4496574 12.157059 -12.225407c0 -6.775749 -5.4240417 -12.370918 -12.157059 -12.370918c-6.7415237 0 -12.310974 5.595169 -12.310974 12.370918c0.008609772 6.775749 5.5780563 12.225407 12.310974 12.225407l0 0z" fill-rule="evenodd"/><path fill="#000000" fill-opacity="0.0" d="m140.30392 12.064468l639.874 0l0 106.64567l-639.874 0z" fill-rule="evenodd"/><path fill="#ffffff" d="m178.6633 50.458214q7.921875 0 12.59375 4.609375q4.6875 4.59375 4.6875 13.390625l0 24.40625l-5.6875 0l0 -23.84375q0 -6.5625 -3.28125 -10.0q-3.265625 -3.4375 -9.359375 -3.4375q-6.796875 0 -10.765625 4.046875q-3.953125 4.03125 -3.953125 11.15625l0 22.078125l-5.671875 0l0 -42.078125l5.4375 0l0 7.765625q2.328125 -3.84375 6.4375 -5.96875q4.125 -2.125 9.5625 -2.125zm71.27307 0.328125l0 57.59375l-5.671875 0l0 -23.4375q-2.640625 4.078125 -6.765625 6.203125q-4.109375 2.125 -9.234375 2.125q-6.0 0 -10.765625 -2.671875q-4.75 -2.6875 -7.46875 -7.5625q-2.71875 -4.890625 -2.71875 -11.21875q0 -6.234375 2.71875 -11.109375q2.71875 -4.890625 7.515625 -7.5625q4.796875 -2.6875 10.71875 -2.6875q5.28125 0 9.46875 2.25q4.203125 2.234375 6.765625 6.390625l0 -8.3125l5.4375 0zm-21.1875 37.4375q4.390625 0 7.953125 -2.03125q3.5625 -2.046875 5.59375 -5.796875q2.046875 -3.765625 2.046875 -8.578125q0 -4.796875 -2.046875 -8.515625q-2.03125 -3.71875 -5.59375 -5.796875q-3.5625 -2.078125 -7.953125 -2.078125q-4.484375 0 -8.046875 2.078125q-3.5625 2.078125 -5.609375 5.796875q-2.03125 3.71875 -2.03125 8.515625q0 4.8125 2.03125 8.578125q2.046875 3.75 5.609375 5.796875q3.5625 2.03125 8.046875 2.03125zm74.95871 -37.4375l0 42.078125l-5.4375 0l0 -7.6875q-2.25 3.84375 -6.171875 5.96875q-3.921875 2.125 -8.953125 2.125q-8.234375 0 -13.0 -4.59375q-4.765625 -4.609375 -4.765625 -13.5l0 -24.390625l5.6875 0l0 23.84375q0 6.640625 3.28125 10.078125q3.28125 3.4375 9.359375 3.4375q6.640625 0 10.46875 -4.03125q3.84375 -4.046875 3.84375 -11.25l0 -22.078125l5.6875 0zm15.91806 0l5.671875 0l0 42.078125l-5.671875 0l0 -42.078125zm2.875 -9.203125q-1.765625 0 -2.96875 -1.203125q-1.1875 -1.203125 -1.1875 -2.875q0 -1.59375 1.1875 -2.796875q1.203125 -1.203125 2.96875 -1.203125q1.765625 0 2.953125 1.15625q1.203125 1.15625 1.203125 2.765625q0 1.75 -1.203125 2.953125q-1.1875 1.203125 -2.953125 1.203125zm24.082489 17.4375q2.0 -4.234375 5.953125 -6.390625q3.96875 -2.171875 9.8125 -2.171875l0 5.53125l-1.359375 -0.078125q-6.640625 0 -10.40625 4.078125q-3.765625 4.078125 -3.765625 11.4375l0 21.4375l-5.671875 0l0 -42.078125l5.4375 0l0 8.234375zm26.002472 -8.234375l5.671875 0l0 42.078125l-5.671875 0l0 -42.078125zm2.875 -9.203125q-1.765625 0 -2.96875 -1.203125q-1.1875 -1.203125 -1.1875 -2.875q0 -1.59375 1.1875 -2.796875q1.203125 -1.203125 2.96875 -1.203125q1.765625 0 2.953125 1.15625q1.203125 1.15625 1.203125 2.765625q0 1.75 -1.203125 2.953125q-1.1875 1.203125 -2.953125 1.203125zm40.08246 8.875q7.921875 0 12.59375 4.609375q4.6875 4.59375 4.6875 13.390625l0 24.40625l-5.6875 0l0 -23.84375q0 -6.5625 -3.28125 -10.0q-3.265625 -3.4375 -9.359375 -3.4375q-6.796875 0 -10.765625 4.046875q-3.953125 4.03125 -3.953125 11.15625l0 22.078125l-5.671875 0l0 -42.078125l5.4375 0l0 7.765625q2.328125 -3.84375 6.4375 -5.96875q4.125 -2.125 9.5625 -2.125zm71.83557 0.328125l0 36.953125q0 10.71875 -5.234375 15.875q-5.234375 5.171875 -15.796875 5.171875q-5.84375 0 -11.09375 -1.71875q-5.234375 -1.71875 -8.515625 -4.765625l2.890625 -4.3125q3.03125 2.71875 7.390625 4.234375q4.359375 1.515625 9.171875 1.515625q8.0 0 11.75 -3.71875q3.765625 -3.71875 3.765625 -11.5625l0 -5.359375q-2.640625 4.0 -6.921875 6.09375q-4.28125 2.078125 -9.484375 2.078125q-5.921875 0 -10.765625 -2.59375q-4.828125 -2.609375 -7.59375 -7.28125q-2.75 -4.6875 -2.75 -10.609375q0 -5.921875 2.75 -10.5625q2.765625 -4.640625 7.5625 -7.203125q4.796875 -2.5625 10.796875 -2.5625q5.359375 0 9.671875 2.171875q4.328125 2.15625 6.96875 6.234375l0 -8.078125l5.4375 0zm-21.515625 35.4375q4.5625 0 8.234375 -1.953125q3.6875 -1.96875 5.71875 -5.484375q2.046875 -3.515625 2.046875 -8.0q0 -4.484375 -2.046875 -7.953125q-2.03125 -3.484375 -5.671875 -5.4375q-3.640625 -1.96875 -8.28125 -1.96875q-4.5625 0 -8.203125 1.921875q-3.640625 1.921875 -5.6875 5.4375q-2.03125 3.515625 -2.03125 8.0q0 4.484375 2.03125 8.0q2.046875 3.515625 5.6875 5.484375q3.640625 1.953125 8.203125 1.953125z" fill-rule="nonzero"/><path fill="#00b0f0" d="m555.78986 50.458214q7.90625 0 12.421875 4.5625q4.53125 4.5625 4.53125 13.4375l0 24.40625l-5.671875 0l0 -23.84375q0 -6.5625 -3.171875 -10.0q-3.15625 -3.4375 -8.921875 -3.4375q-6.546875 0 -10.3125 4.046875q-3.765625 4.03125 -3.765625 11.15625l0 22.078125l-5.671875 0l0 -23.84375q0 -6.5625 -3.171875 -10.0q-3.15625 -3.4375 -8.984375 -3.4375q-6.484375 0 -10.296875 4.046875q-3.7969055 4.03125 -3.7969055 11.15625l0 22.078125l-5.671875 0l0 -42.078125l5.4375 0l0 7.671875q2.234375 -3.828125 6.2344055 -5.90625q4.0 -2.09375 9.203125 -2.09375q5.28125 0 9.15625 2.25q3.890625 2.234375 5.8125 6.640625q2.3125 -4.171875 6.671875 -6.53125q4.359375 -2.359375 9.96875 -2.359375zm32.395508 0.328125l5.671875 0l0 42.078125l-5.671875 0l0 -42.078125zm2.875 -9.203125q-1.765625 0 -2.96875 -1.203125q-1.1875 -1.203125 -1.1875 -2.875q0 -1.59375 1.1875 -2.796875q1.203125 -1.203125 2.96875 -1.203125q1.765625 0 2.953125 1.15625q1.203125 1.15625 1.203125 2.765625q0 1.75 -1.203125 2.953125q-1.1875 1.203125 -2.953125 1.203125zm40.08252 8.875q7.921875 0 12.59375 4.609375q4.6875 4.59375 4.6875 13.390625l0 24.40625l-5.6875 0l0 -23.84375q0 -6.5625 -3.28125 -10.0q-3.265625 -3.4375 -9.359375 -3.4375q-6.796875 0 -10.765625 4.046875q-3.953125 4.03125 -3.953125 11.15625l0 22.078125l-5.671875 0l0 -42.078125l5.4375 0l0 7.765625q2.328125 -3.84375 6.4375 -5.96875q4.125 -2.125 9.5625 -2.125zm71.27307 -16.953125l0 59.359375l-5.4375 0l0 -8.3125q-2.5625 4.234375 -6.765625 6.484375q-4.1875 2.234375 -9.46875 2.234375q-5.921875 0 -10.71875 -2.71875q-4.796875 -2.734375 -7.515625 -7.609375q-2.71875 -4.875 -2.71875 -11.125q0 -6.234375 2.71875 -11.109375q2.71875 -4.890625 7.515625 -7.5625q4.796875 -2.6875 10.71875 -2.6875q5.125 0 9.234375 2.125q4.125 2.125 6.765625 6.203125l0 -25.28125l5.671875 0zm-21.1875 54.71875q4.390625 0 7.953125 -2.03125q3.5625 -2.046875 5.59375 -5.796875q2.046875 -3.765625 2.046875 -8.578125q0 -4.796875 -2.046875 -8.546875q-2.03125 -3.765625 -5.59375 -5.796875q-3.5625 -2.046875 -7.953125 -2.046875q-4.484375 0 -8.046875 2.046875q-3.5625 2.03125 -5.609375 5.796875q-2.03125 3.75 -2.03125 8.546875q0 4.8125 2.03125 8.578125q2.046875 3.75 5.609375 5.796875q3.5625 2.03125 8.046875 2.03125zm48.318054 5.046875q-5.125 0 -9.8125 -1.484375q-4.671875 -1.484375 -7.3125 -3.71875l2.5625 -4.484375q2.640625 2.078125 6.640625 3.40625q4.0 1.3125 8.3125 1.3125q5.765625 0 8.515625 -1.796875q2.765625 -1.796875 2.765625 -5.078125q0 -2.328125 -1.515625 -3.640625q-1.515625 -1.328125 -3.84375 -2.0q-2.3125 -0.6875 -6.15625 -1.328125q-5.125 -0.953125 -8.25 -1.953125q-3.109375 -1.0 -5.3125 -3.390625q-2.203125 -2.40625 -2.203125 -6.65625q0 -5.28125 4.40625 -8.640625q4.40625 -3.359375 12.234375 -3.359375q4.078125 0 8.15625 1.09375q4.09375 1.078125 6.734375 2.828125l-2.484375 4.5625q-5.203125 -3.59375 -12.40625 -3.59375q-5.4375 0 -8.203125 1.921875q-2.75 1.90625 -2.75 5.03125q0 2.40625 1.5625 3.84375q1.5625 1.4375 3.875 2.125q2.328125 0.671875 6.40625 1.390625q5.03125 0.96875 8.0625 1.9375q3.046875 0.953125 5.203125 3.265625q2.171875 2.3125 2.171875 6.40625q0 5.515625 -4.609375 8.765625q-4.59375 3.234375 -12.75 3.234375z" fill-rule="nonzero"/></g></svg>